<?xml version="1.0" encoding="UTF-8" standalone="no"?>
<!-- Created with Inkscape (http://www.inkscape.org/) -->

<svg
   version="1.1"
   id="svg2"
   width="1000"
   height="666.66669"
   viewBox="0 0 1000 666.66669"
   sodipodi:docname="4293768.eps"
   xmlns:inkscape="http://www.inkscape.org/namespaces/inkscape"
   xmlns:sodipodi="http://sodipodi.sourceforge.net/DTD/sodipodi-0.dtd"
   xmlns="http://www.w3.org/2000/svg"
   xmlns:svg="http://www.w3.org/2000/svg">
  <defs
     id="defs6" />
  <sodipodi:namedview
     id="namedview4"
     pagecolor="#ffffff"
     bordercolor="#000000"
     borderopacity="0.25"
     inkscape:showpageshadow="2"
     inkscape:pageopacity="0.0"
     inkscape:pagecheckerboard="0"
     inkscape:deskcolor="#d1d1d1" />
  <g
     id="g8"
     inkscape:groupmode="layer"
     inkscape:label="ink_ext_XXXXXX"
     transform="matrix(1.3333333,0,0,-1.3333333,0,666.66667)">
    <g
       id="g10"
       transform="scale(0.1)">
      <path
         d="M 7500,0 H 0 V 5000 H 7500 V 0"
         style="fill:#ffffff;fill-opacity:1;fill-rule:nonzero;stroke:none"
         id="path12" />
      <path
         d="m 7206.21,2157.57 c 0,989.7 -802.31,1792.01 -1792.01,1792.01 -36.54,0 -72.8,-1.23 -108.82,-3.39 -393.67,471.2 -985.59,771.03 -1647.62,771.03 -1011.03,0 -1858.62,-699.18 -2086.01,-1640.35 C 973.98,2909.93 535.449,2361.38 535.449,1710.35 c 0,-389.92 157.34,-743.069 411.953,-999.518 H 6471.67 c 445.29,326.038 734.54,852.568 734.54,1446.738"
         style="fill:#caeded;fill-opacity:1;fill-rule:nonzero;stroke:none"
         id="path14" />
      <path
         d="m 7120.19,551.672 v 0 c 0,17.488 -14.17,31.66 -31.66,31.66 h -220.2 c -17.49,0 -31.66,14.18 -31.66,31.668 v 0 c 0,17.488 -14.18,31.672 -31.67,31.672 h -58.72 c -17.49,0 -31.67,14.18 -31.67,31.66 v 0 c 0,17.488 -14.18,31.668 -31.67,31.668 H 817.055 c -17.485,0 -31.664,-14.18 -31.664,-31.668 v 0 c 0,-17.48 -14.18,-31.66 -31.664,-31.66 H 695 c -17.488,0 -31.664,-14.184 -31.664,-31.672 v 0 c 0,-17.488 -14.18,-31.668 -31.672,-31.668 H 411.48 c -17.492,0 -31.671,-14.172 -31.671,-31.66 v 0 C 379.809,534.18 393.988,520 411.48,520 h 2000.29 c 17.49,0 31.67,-14.18 31.67,-31.668 v 0 c 0,-17.492 -14.18,-31.66 -31.67,-31.66 H 1296.49 c -17.49,0 -31.66,-14.184 -31.66,-31.672 v 0 c 0,-17.488 14.17,-31.668 31.66,-31.668 h 5455.48 c 17.49,0 31.67,14.18 31.67,31.668 v 0 c 0,17.488 -14.18,31.672 -31.67,31.672 H 5676.95 c -17.49,0 -31.67,14.168 -31.67,31.66 v 0 c 0,17.488 14.18,31.668 31.67,31.668 h 1411.58 c 17.49,0 31.66,14.18 31.66,31.672"
         style="fill:#8bd8d0;fill-opacity:1;fill-rule:nonzero;stroke:none"
         id="path16" />
      <path
         d="M 1087.32,393.332 H 830.66 c -17.492,0 -31.672,14.18 -31.672,31.668 v 0 c 0,17.488 14.18,31.672 31.672,31.672 h 256.66 c 17.49,0 31.67,-14.184 31.67,-31.672 v 0 c 0,-17.488 -14.18,-31.668 -31.67,-31.668"
         style="fill:#8bd8d0;fill-opacity:1;fill-rule:nonzero;stroke:none"
         id="path18" />
      <path
         d="m 4429.11,1592.26 h -49.17 l -13.14,-117.89 52.32,28.28 9.99,89.61"
         style="fill:#3f244a;fill-opacity:1;fill-rule:nonzero;stroke:none"
         id="path20" />
      <path
         d="m 4366.8,1474.37 -83.53,-748.768 h 49.17 l 86.68,777.048 -52.32,-28.28"
         style="fill:#93a2b0;fill-opacity:1;fill-rule:nonzero;stroke:none"
         id="path22" />
      <path
         d="m 4795.77,1487.47 -84.98,-761.868 h 49.17 l 88.14,790.138 -52.33,-28.27"
         style="fill:#93a2b0;fill-opacity:1;fill-rule:nonzero;stroke:none"
         id="path24" />
      <path
         d="m 4856.63,1592.26 h -49.17 l -11.69,-104.79 52.33,28.27 8.53,76.52"
         style="fill:#3f244a;fill-opacity:1;fill-rule:nonzero;stroke:none"
         id="path26" />
      <path
         d="m 5041.64,1592.26 h -49.17 l 11.99,-107.54 46.38,25.06 -9.2,82.48"
         style="fill:#3f244a;fill-opacity:1;fill-rule:nonzero;stroke:none"
         id="path28" />
      <path
         d="m 5138.31,725.602 -87.47,784.178 -46.38,-25.06 84.68,-759.118 h 49.17"
         style="fill:#93a2b0;fill-opacity:1;fill-rule:nonzero;stroke:none"
         id="path30" />
      <path
         d="m 5469.16,1592.26 h -49.17 l 11.18,-100.32 46.38,25.06 -8.39,75.26"
         style="fill:#3f244a;fill-opacity:1;fill-rule:nonzero;stroke:none"
         id="path32" />
      <path
         d="m 5565.82,725.602 -88.27,791.398 -46.38,-25.06 85.48,-766.338 h 49.17"
         style="fill:#93a2b0;fill-opacity:1;fill-rule:nonzero;stroke:none"
         id="path34" />
      <path
         d="m 4344.54,1592.26 0.01,0.02 c 44.67,96.66 141.44,158.55 247.92,158.55 h 325.41 l 175.95,1145.23 247.21,199.95 h 156.57 c 196.09,0 346.06,-174.77 316.29,-368.59 l -148.34,-965.54 c -14.99,-97.57 -98.95,-169.62 -197.68,-169.62 H 4344.54"
         style="fill:#73769e;fill-opacity:1;fill-rule:nonzero;stroke:none"
         id="path36" />
      <path
         d="m 4187.98,1592.26 0.01,0.02 c 44.67,96.66 141.43,158.55 247.92,158.55 h 325.41 l 150.01,976.44 c 32.6,212.13 215.1,368.74 429.71,368.74 v 0 c 196.11,0 346.07,-174.77 316.29,-368.59 l -131.79,-857.85 c -10.49,-68.31 -69.26,-118.74 -138.37,-118.74 h -205.29 c -106.47,0 -203.25,-61.89 -247.91,-158.55 l -0.01,-0.02 h -745.98"
         style="fill:#3e4c78;fill-opacity:1;fill-rule:nonzero;stroke:none"
         id="path38" />
      <path
         d="m 4655.28,3095.17 c 47.82,-23.53 106.75,-23 154.13,1.4 36.7,18.9 65.71,51.8 80.94,90.1 h -38.68 c -22.09,0 -40,17.91 -40,40 V 3360 l -172.5,-45 v -96.67 c 0,-22.09 -17.91,-40 -40,-40 h -24.09 c 16.4,-35.65 44.94,-65.81 80.2,-83.16"
         style="fill:#f79484;fill-opacity:1;fill-rule:nonzero;stroke:none"
         id="path40" />
      <path
         d="m 4811.67,3360 c -29.17,-104.17 -89.17,-147.5 -172.5,-118.33 V 3315 l 172.5,45"
         style="fill:#3f244a;fill-opacity:1;fill-rule:nonzero;stroke:none"
         id="path42" />
      <path
         d="m 4479.17,3510 c -67.5,50.83 -45,155 -35,170 -24.31,14.58 -47.96,34.39 -62.27,58.86 -14.3,24.46 -19.74,55.02 -10.19,81.71 9.55,26.68 35.7,47.83 64.03,47.33 33.07,-0.59 59.22,-27.59 90.45,-38.44 31.56,-10.96 66.34,-4.77 98.67,3.63 32.35,8.39 65.03,19 98.35,16.54 28.26,-2.09 55.73,-13.93 76.64,-33.05 20.92,-19.13 35.17,-45.42 39.78,-73.38 26.97,12.92 64.64,2.68 81.18,-22.24 15.94,-23.99 13.57,-55.34 9.77,-83.89 -6.9,-51.66 -34.9,-176.43 -47.25,-227.07 L 4790,3386.67 4479.17,3510"
         style="fill:#3f244a;fill-opacity:1;fill-rule:nonzero;stroke:none"
         id="path44" />
      <path
         d="m 4855.25,3483.3 c 8.89,14.2 22.1,26.28 38.21,30.88 16.11,4.61 35.11,0.6 45.96,-12.17 9.07,-10.68 11.41,-25.9 8.89,-39.68 -2.51,-13.78 -9.35,-26.38 -16.97,-38.14 -6.91,-10.66 -14.64,-20.97 -24.45,-29.06 -9.8,-8.08 -21.89,-13.86 -34.6,-14.37 -12.69,-0.52 -25.92,4.77 -33.32,15.11 -8.36,11.71 -6.03,28.24 -2.22,41.29 4.6,15.77 9.75,32.14 18.5,46.14"
         style="fill:#f79484;fill-opacity:1;fill-rule:nonzero;stroke:none"
         id="path46" />
      <path
         d="m 4870.59,3400.72 c -6.38,0 -12.41,2.66 -15.35,6.78 -1.34,1.88 -3.97,8.01 0.71,24.06 4.18,14.33 8.88,29.32 16.27,41.14 7.07,11.3 16.81,19.42 26.74,22.26 2.49,0.7 5.1,1.07 7.79,1.07 7.21,0 13.73,-2.61 17.43,-6.97 4.4,-5.19 6.11,-14.06 4.45,-23.13 -2.04,-11.25 -8.6,-22.4 -14.08,-30.87 -7.39,-11.41 -13.67,-18.97 -20.38,-24.5 -7.31,-6.03 -15.38,-9.52 -22.69,-9.82 l -0.89,-0.02"
         style="fill:#f2546e;fill-opacity:1;fill-rule:nonzero;stroke:none"
         id="path48" />
      <path
         d="m 4824.17,3521.67 c 0,0 -80,33.33 -69.39,127.38 -83.74,-26.79 -176.34,-24.6 -258.91,5.5 -18.4,-29.68 -29.2,-64.56 -29.2,-102.05 v -93.33 c 0,-107.24 86.92,-194.17 194.16,-194.17 v 0 c 88.68,0 163.31,59.51 186.54,140.73 -5.14,5.54 -9.95,11.41 -13.98,17.96 -17.37,28.22 -21.61,67.24 -9.22,97.98"
         style="fill:#f79484;fill-opacity:1;fill-rule:nonzero;stroke:none"
         id="path50" />
      <path
         d="m 4512.47,3567.43 c -17.26,-4.32 -31.01,-19.06 -38.3,-38.32 l 84.58,21.15 c -12.14,14.4 -29,21.49 -46.28,17.17"
         style="fill:#3f244a;fill-opacity:1;fill-rule:nonzero;stroke:none"
         id="path52" />
      <path
         d="m 4533.53,3499.13 c 0,-9.43 -5.79,-17.06 -12.93,-17.06 -7.14,0 -12.92,7.63 -12.92,17.06 0,9.41 5.78,17.05 12.92,17.05 7.14,0 12.93,-7.64 12.93,-17.05"
         style="fill:#3f244a;fill-opacity:1;fill-rule:nonzero;stroke:none"
         id="path54" />
      <path
         d="m 4696.48,3558.24 c 22.8,-4.32 40.92,-19.06 50.55,-38.32 l -111.61,21.15 c 16.01,14.4 38.27,21.49 61.06,17.17"
         style="fill:#3f244a;fill-opacity:1;fill-rule:nonzero;stroke:none"
         id="path56" />
      <path
         d="m 4668.7,3489.93 c 0,-9.42 7.64,-17.05 17.06,-17.05 9.43,0 17.06,7.63 17.06,17.05 0,9.43 -7.63,17.06 -17.06,17.06 -9.42,0 -17.06,-7.63 -17.06,-17.06"
         style="fill:#3f244a;fill-opacity:1;fill-rule:nonzero;stroke:none"
         id="path58" />
      <path
         d="m 4608.18,3393.11 c -0.06,0 -0.14,0.01 -0.21,0.01 -8.82,0.78 -17.72,1.91 -26.82,3.11 -9.27,1.22 -17.59,6.33 -22.85,14.04 -5.14,7.51 -6.84,16.84 -4.69,25.59 7.08,28.8 16.59,57.26 28.25,84.59 0.53,1.28 2.03,1.86 3.27,1.32 1.27,-0.54 1.86,-2.01 1.32,-3.28 -11.55,-27.08 -20.96,-55.28 -27.97,-83.82 -1.85,-7.49 -0.44,-15.15 3.95,-21.58 4.45,-6.53 11.52,-10.87 19.37,-11.9 9.05,-1.19 17.89,-2.32 26.6,-3.09 1.38,-0.12 2.39,-1.33 2.27,-2.71 -0.11,-1.3 -1.2,-2.28 -2.49,-2.28"
         style="fill:#3f244a;fill-opacity:1;fill-rule:nonzero;stroke:none"
         id="path60" />
      <path
         d="m 4686.12,3382.96 c -41.45,-4.85 -82.9,-9.7 -124.35,-14.54 15.35,-19.94 40.23,-32.83 65.3,-30.64 25.07,2.19 47.38,22.89 59.05,45.18"
         style="fill:#ffffff;fill-opacity:1;fill-rule:nonzero;stroke:none"
         id="path62" />
      <path
         d="M 4833.29,2181.67 H 4468.33 L 3904.22,2027.61 C 3772.1,1991.52 3700.59,1848.69 3750.86,1721.3 L 4000,1090 l 244.98,96.16 -94.98,524.19 h 218.33 l 464.96,302.98 v 168.34"
         style="fill:#3d88c4;fill-opacity:1;fill-rule:nonzero;stroke:none"
         id="path64" />
      <path
         d="m 4271.45,1196.55 -297.91,-116.94 32.29,-106.551 297.92,116.941 -32.3,106.55"
         style="fill:#57abda;fill-opacity:1;fill-rule:nonzero;stroke:none"
         id="path66" />
      <path
         d="m 3985.17,710.832 c -4.56,-13.48 -7.06,-27.781 -7.06,-42.5 h 403.56 l -13,42.5 h -383.5"
         style="fill:#d5555f;fill-opacity:1;fill-rule:nonzero;stroke:none"
         id="path68" />
      <path
         d="m 4258.16,1072.11 -196.48,-77.13 48.77,-128.808 c 9.18,-24.242 -1.69,-51.473 -25.04,-62.742 l -32.25,-15.559 c -32.64,-15.742 -56.75,-43.82 -67.99,-77.039 h 383.5 l -110.51,361.278"
         style="fill:#9f2e46;fill-opacity:1;fill-rule:nonzero;stroke:none"
         id="path70" />
      <path
         d="m 4233.98,1805.44 18.52,-95.09 h 115.83 l 464.96,302.98 v 97.92 l -459.15,-95.16 c -96.51,-20.01 -158.99,-113.9 -140.16,-210.65"
         style="fill:#307bac;fill-opacity:1;fill-rule:nonzero;stroke:none"
         id="path72" />
      <path
         d="m 5007.5,2181.67 -476.02,-127.65 c -134.2,-35.98 -221.71,-164.95 -205.58,-302.96 L 4395,1160 h 285 l 22.5,587.5 H 4910 c 204.35,0 370,165.65 370,370 v 159.72 l -272.5,-95.55"
         style="fill:#3d88c4;fill-opacity:1;fill-rule:nonzero;stroke:none"
         id="path74" />
      <path
         d="m 4703.33,1058.33 h -335 V 1160 h 335 v -101.67"
         style="fill:#57abda;fill-opacity:1;fill-rule:nonzero;stroke:none"
         id="path76" />
      <path
         d="M 4658.33,1058.33 H 4416.67 V 888.191 c 0,-53.371 -29.06,-102.492 -75.84,-128.191 -33.2,-18.238 -57.42,-48.328 -68.71,-83.328 h 386.21 v 381.658"
         style="fill:#be3955;fill-opacity:1;fill-rule:nonzero;stroke:none"
         id="path78" />
      <path
         d="m 4272.12,676.672 c -4.61,-14.301 -7.12,-29.383 -7.12,-44.863 v -3.477 h 393.33 v 48.34 h -386.21"
         style="fill:#f57a5d;fill-opacity:1;fill-rule:nonzero;stroke:none"
         id="path80" />
      <path
         d="m 4702.5,1747.5 6.09,159.16 v 0 c 39.66,-41.81 48.14,-104.29 21.05,-155.15 l -2.14,-4.01 h -25"
         style="fill:#307bac;fill-opacity:1;fill-rule:nonzero;stroke:none"
         id="path82" />
      <path
         d="m 4658.33,1157.5 c -1.38,0 -2.5,1.12 -2.5,2.5 v 612.5 c 0,1.38 1.12,2.5 2.5,2.5 1.38,0 2.5,-1.12 2.5,-2.5 V 1160 c 0,-1.38 -1.12,-2.5 -2.5,-2.5"
         style="fill:#3f244a;fill-opacity:1;fill-rule:nonzero;stroke:none"
         id="path84" />
      <path
         d="m 4220.76,1317.33 c -1.19,0 -2.23,0.85 -2.46,2.05 l -108.23,597.3 c -0.25,1.36 0.65,2.67 2.01,2.91 1.42,0.26 2.66,-0.66 2.91,-2.01 l 108.23,-597.3 c 0.25,-1.35 -0.65,-2.66 -2.01,-2.91 -0.16,-0.03 -0.3,-0.04 -0.45,-0.04"
         style="fill:#3f244a;fill-opacity:1;fill-rule:nonzero;stroke:none"
         id="path86" />
      <path
         d="m 4166.65,1194.05 c -1.13,0 -2.15,0.77 -2.43,1.92 l -154.98,638.44 c -0.32,1.34 0.5,2.69 1.84,3.02 1.34,0.32 2.69,-0.51 3.02,-1.84 l 154.98,-638.45 c 0.32,-1.34 -0.5,-2.69 -1.84,-3.02 -0.2,-0.05 -0.39,-0.07 -0.59,-0.07"
         style="fill:#3f244a;fill-opacity:1;fill-rule:nonzero;stroke:none"
         id="path88" />
      <path
         d="m 3992.41,2049.19 c -1.1,0 -2.11,0.73 -2.41,1.85 -0.36,1.32 0.42,2.7 1.76,3.06 l 475.92,129.98 c 1.33,0.35 2.7,-0.43 3.06,-1.76 0.36,-1.32 -0.42,-2.7 -1.76,-3.06 l -475.91,-129.98 c -0.22,-0.06 -0.44,-0.09 -0.66,-0.09"
         style="fill:#3f244a;fill-opacity:1;fill-rule:nonzero;stroke:none"
         id="path90" />
      <path
         d="m 4365.19,1412.5 c -1.25,0 -2.34,0.94 -2.48,2.21 l -39.29,336.06 c -16.16,138.22 73.01,269.63 207.42,305.67 l 395.62,106.08 c 1.34,0.34 2.71,-0.43 3.06,-1.77 0.36,-1.33 -0.43,-2.7 -1.77,-3.05 l -395.62,-106.09 c -132.02,-35.4 -219.62,-164.48 -203.75,-300.25 l 39.29,-336.07 c 0.16,-1.37 -0.82,-2.61 -2.19,-2.77 -0.1,-0.01 -0.2,-0.02 -0.29,-0.02"
         style="fill:#3f244a;fill-opacity:1;fill-rule:nonzero;stroke:none"
         id="path92" />
      <path
         d="m 4949.26,3186.67 h -58.91 c -15.23,-38.3 -44.24,-71.2 -80.94,-90.1 -47.38,-24.4 -106.31,-24.93 -154.13,-1.4 -35.26,17.35 -63.8,47.51 -80.2,83.16 h -123.42 c -117.98,0 -223.29,-73.94 -263.36,-184.9 L 4070.84,2668.12 4365,2590 l 38.33,136.79 65,-545.12 h 364.96 L 5200,2465 4949.26,3186.67"
         style="fill:#feefcc;fill-opacity:1;fill-rule:nonzero;stroke:none"
         id="path94" />
      <path
         d="m 4949.26,3186.67 h 100.13 c 113.34,0 215.5,-68.34 258.78,-173.09 l 118.5,-286.79 -280.49,-106.89 -196.92,566.77"
         style="fill:#feefcc;fill-opacity:1;fill-rule:nonzero;stroke:none"
         id="path96" />
      <path
         d="M 4833.29,2181.67 5200,2465 l -53.82,154.9 237.17,90.38 73.23,-213.2 c 26.79,-78 -14.4,-162.99 -92.22,-190.28 l -356.86,-125.13 -292.5,-78.44 118.29,78.44"
         style="fill:#f79484;fill-opacity:1;fill-rule:nonzero;stroke:none"
         id="path98" />
      <path
         d="m 5383.35,2710.28 -237.17,-90.38 25.01,-71.98 217.55,146.65 -5.39,15.71"
         style="fill:#3f244a;fill-opacity:1;fill-rule:nonzero;stroke:none"
         id="path100" />
      <path
         d="m 4329.96,2143.88 -34.96,338.41 48.91,113.31 -246.15,65.38 -27.21,-94.42 c -15.79,-54.77 -13.84,-113.14 5.57,-166.74 l 107.21,-295.98 146.63,40.04"
         style="fill:#f79484;fill-opacity:1;fill-rule:nonzero;stroke:none"
         id="path102" />
      <path
         d="m 4097.76,2660.98 246.15,-65.38 -24.59,-56.99 -226.19,106.29 4.63,16.08"
         style="fill:#3f244a;fill-opacity:1;fill-rule:nonzero;stroke:none"
         id="path104" />
      <path
         d="m 5044.73,2911.91 39.76,-378.37 c 3.44,-32.72 -6.71,-65.42 -28.06,-90.44 L 4833.29,2181.67 5200,2465 5044.73,2911.91"
         style="fill:#fddc6f;fill-opacity:1;fill-rule:nonzero;stroke:none"
         id="path106" />
      <path
         d="m 4403.33,2726.79 -27.42,229.99 -22.74,-116.3 c -11.65,-59.61 0.46,-121.42 33.76,-172.22 v 0 l 16.4,58.53"
         style="fill:#fddc6f;fill-opacity:1;fill-rule:nonzero;stroke:none"
         id="path108" />
      <path
         d="m 5146.18,2617.4 c -1.03,0 -2,0.65 -2.36,1.68 l -117.05,336.88 c -0.45,1.3 0.23,2.73 1.54,3.18 1.31,0.44 2.73,-0.24 3.18,-1.54 l 117.05,-336.88 c 0.45,-1.3 -0.23,-2.73 -1.54,-3.18 -0.27,-0.09 -0.54,-0.14 -0.82,-0.14"
         style="fill:#3f244a;fill-opacity:1;fill-rule:nonzero;stroke:none"
         id="path110" />
      <path
         d="m 5119.02,2693.74 c -1,0 -1.96,0.62 -2.34,1.62 -0.48,1.29 0.17,2.73 1.46,3.22 l 239.15,90.19 c 1.24,0.49 2.72,-0.16 3.22,-1.46 0.48,-1.29 -0.17,-2.73 -1.47,-3.22 L 5119.9,2693.9 c -0.28,-0.11 -0.58,-0.16 -0.88,-0.16"
         style="fill:#3f244a;fill-opacity:1;fill-rule:nonzero;stroke:none"
         id="path112" />
      <path
         d="m 4993.4,2302.87 c -0.74,0 -1.49,0.33 -1.98,0.97 -0.84,1.09 -0.64,2.66 0.45,3.51 l 274.06,211.75 c 1.09,0.84 2.65,0.66 3.51,-0.45 0.84,-1.09 0.64,-2.66 -0.45,-3.5 l -274.06,-211.76 c -0.46,-0.35 -0.99,-0.52 -1.53,-0.52"
         style="fill:#3f244a;fill-opacity:1;fill-rule:nonzero;stroke:none"
         id="path114" />
      <path
         d="m 4447.53,2353.62 c -1.25,0 -2.33,0.94 -2.48,2.21 l -71.62,600.65 c -0.17,1.37 0.81,2.62 2.19,2.78 1.32,0.21 2.6,-0.81 2.77,-2.18 l 71.62,-600.66 c 0.17,-1.37 -0.81,-2.61 -2.19,-2.78 -0.1,-0.01 -0.19,-0.02 -0.29,-0.02"
         style="fill:#3f244a;fill-opacity:1;fill-rule:nonzero;stroke:none"
         id="path116" />
      <path
         d="m 4376.09,2627.08 c -0.22,0 -0.45,0.03 -0.67,0.1 -1.33,0.37 -2.11,1.75 -1.74,3.08 l 27.24,97.2 c 0.37,1.33 1.75,2.12 3.08,1.73 1.33,-0.37 2.11,-1.75 1.74,-3.08 l -27.23,-97.2 c -0.32,-1.1 -1.32,-1.83 -2.42,-1.83"
         style="fill:#3f244a;fill-opacity:1;fill-rule:nonzero;stroke:none"
         id="path118" />
      <path
         d="m 4383.62,2653.95 c -0.2,0 -0.41,0.02 -0.61,0.07 l -249.88,63.46 c -1.33,0.34 -2.14,1.7 -1.8,3.04 0.34,1.34 1.73,2.14 3.04,1.8 l 249.87,-63.45 c 1.34,-0.34 2.15,-1.7 1.8,-3.04 -0.28,-1.13 -1.29,-1.88 -2.42,-1.88"
         style="fill:#3f244a;fill-opacity:1;fill-rule:nonzero;stroke:none"
         id="path120" />
      <path
         d="m 1828.19,1450 h 49.17 l 13.15,-117.88 -52.33,28.26 -9.99,89.62"
         style="fill:#3f244a;fill-opacity:1;fill-rule:nonzero;stroke:none"
         id="path122" />
      <path
         d="m 1890.51,1332.12 83.51,-748.788 h -49.17 l -86.67,777.048 52.33,-28.26"
         style="fill:#93a2b0;fill-opacity:1;fill-rule:nonzero;stroke:none"
         id="path124" />
      <path
         d="m 1461.53,1345.21 84.98,-761.878 h -49.17 l -88.14,790.148 52.33,-28.27"
         style="fill:#93a2b0;fill-opacity:1;fill-rule:nonzero;stroke:none"
         id="path126" />
      <path
         d="m 1400.67,1450 h 49.17 l 11.69,-104.79 -52.33,28.27 -8.53,76.52"
         style="fill:#3f244a;fill-opacity:1;fill-rule:nonzero;stroke:none"
         id="path128" />
      <path
         d="m 1215.66,1450 h 49.17 l -12,-107.54 -46.37,25.05 9.2,82.49"
         style="fill:#3f244a;fill-opacity:1;fill-rule:nonzero;stroke:none"
         id="path130" />
      <path
         d="m 1118.99,583.332 87.47,784.178 46.37,-25.05 -84.67,-759.128 h -49.17"
         style="fill:#93a2b0;fill-opacity:1;fill-rule:nonzero;stroke:none"
         id="path132" />
      <path
         d="m 788.141,1450 h 49.172 l -11.192,-100.31 -46.375,25.05 8.395,75.26"
         style="fill:#3f244a;fill-opacity:1;fill-rule:nonzero;stroke:none"
         id="path134" />
      <path
         d="m 691.477,583.332 88.269,791.408 46.375,-25.05 -85.476,-766.358 h -49.168"
         style="fill:#93a2b0;fill-opacity:1;fill-rule:nonzero;stroke:none"
         id="path136" />
      <path
         d="m 1912.75,1450 -0.01,0.02 c -44.65,96.66 -141.43,158.55 -247.91,158.55 H 1339.42 L 1163.47,2753.8 916.25,2953.75 H 759.688 c -196.094,0 -346.067,-174.77 -316.29,-368.59 l 148.34,-965.53 C 606.734,1522.04 690.688,1450 789.418,1450 H 1912.75"
         style="fill:#73769e;fill-opacity:1;fill-rule:nonzero;stroke:none"
         id="path138" />
      <path
         d="m 2069.32,1450 -0.01,0.02 c -44.67,96.66 -141.44,158.55 -247.92,158.55 h -325.41 l -150.01,976.44 c -32.6,212.13 -215.1,368.74 -429.72,368.74 v 0 c -196.094,0 -346.062,-174.77 -316.289,-368.59 L 731.758,1727.31 C 742.25,1659 801.02,1608.57 870.133,1608.57 h 205.277 c 106.48,0 203.25,-61.89 247.92,-158.55 V 1450 h 745.99"
         style="fill:#3e4c78;fill-opacity:1;fill-rule:nonzero;stroke:none"
         id="path140" />
      <path
         d="m 1557.51,2036.67 -165.27,-428.1 h 827.77 l -147.5,-636.711 h 400 l 113.33,680.421 c 26.61,159.77 -87.48,308.72 -248.67,324.64 l -604.73,59.75 h -174.93"
         style="fill:#42729d;fill-opacity:1;fill-rule:nonzero;stroke:none"
         id="path142" />
      <path
         d="m 2220.01,1608.57 47.16,203.56 -59.88,-53.65 c -13.12,-11.76 -20.62,-28.55 -20.62,-46.17 v 0 c 0,-31.29 -23.34,-57.68 -54.41,-61.51 l -24.68,-3.04 -6.53,-39.19 h 118.96"
         style="fill:#3e4c78;fill-opacity:1;fill-rule:nonzero;stroke:none"
         id="path144" />
      <path
         d="m 2427.6,726.391 c -0.66,0.711 -1.38,1.347 -2.03,2.089 l -8.98,10.04 c -21.56,24.132 -31.07,56.699 -25.88,88.652 L 2415,971.859 h -184.42 l -23.28,-140.66 c -4.4,-27.687 -13.4,-54.57 -27.65,-78.711 -9.94,-16.867 -21.64,-41.687 -30.21,-74.156 h 226.92 c 11.54,20.84 29.88,37.578 51.24,48.059"
         style="fill:#be3955;fill-opacity:1;fill-rule:nonzero;stroke:none"
         id="path146" />
      <path
         d="m 2523.16,689.781 -30.53,3.699 c -24.9,3 -47.85,14.719 -65.03,32.911 -21.36,-10.481 -39.7,-27.219 -51.24,-48.059 h -226.92 c -3.99,-15.121 -7.37,-31.75 -9.47,-50.281 -2.69,-23.781 15.84,-44.719 39.77,-44.719 h 437.76 c 0,54.238 -40.49,99.93 -94.34,106.449"
         style="fill:#f89c46;fill-opacity:1;fill-rule:nonzero;stroke:none"
         id="path148" />
      <path
         d="M 2230.58,971.859 H 2415 l -3.69,-22.679 -190.3,-37.578 9.57,60.257"
         style="fill:#3f244a;fill-opacity:1;fill-rule:nonzero;stroke:none"
         id="path150" />
      <path
         d="m 1924.33,726.391 c -0.67,0.711 -1.4,1.347 -2.04,2.089 l -8.98,10.04 c -21.56,24.132 -31.07,56.699 -25.88,88.652 l 23.4,144.687 h -184.42 l -22.39,-140.66 c -4.4,-27.687 -13.4,-54.57 -27.65,-78.711 -9.94,-16.867 -21.64,-41.687 -30.21,-74.156 h 226.92 c 11.54,20.84 29.88,37.578 51.25,48.059"
         style="fill:#d5555f;fill-opacity:1;fill-rule:nonzero;stroke:none"
         id="path152" />
      <path
         d="m 2019.88,689.781 -30.53,3.699 c -24.9,3 -47.86,14.719 -65.02,32.911 -21.37,-10.481 -39.71,-27.219 -51.25,-48.059 h -226.92 c -3.99,-15.121 -7.37,-31.75 -9.47,-50.281 -2.69,-23.781 15.83,-44.719 39.77,-44.719 h 437.76 c 0,54.238 -40.49,99.93 -94.34,106.449"
         style="fill:#fccd50;fill-opacity:1;fill-rule:nonzero;stroke:none"
         id="path154" />
      <path
         d="m 1726.41,971.859 h 184.42 l -3.68,-22.679 -190.31,-37.578 9.57,60.257"
         style="fill:#3f244a;fill-opacity:1;fill-rule:nonzero;stroke:none"
         id="path156" />
      <path
         d="m 1080,2036.67 -44.5,-115.26 c -58.176,-150.7 53.04,-312.84 214.57,-312.84 H 1742.5 L 1595,971.859 h 400 l 115.37,692.661 c 25.84,155.17 -81.17,301.16 -236.91,323.23 l -345.13,48.92 H 1080"
         style="fill:#5080b0;fill-opacity:1;fill-rule:nonzero;stroke:none"
         id="path158" />
      <path
         d="m 1742.5,1608.57 47.16,203.56 -57.58,-57.16 c -38.46,-38.18 -53.84,-93.89 -40.41,-146.4 v 0 h 50.83"
         style="fill:#3e4c78;fill-opacity:1;fill-rule:nonzero;stroke:none"
         id="path160" />
      <path
         d="m 1742.5,1606.07 h -350.26 c -1.38,0 -2.5,1.13 -2.5,2.5 0,1.38 1.12,2.5 2.5,2.5 h 350.26 c 1.38,0 2.5,-1.12 2.5,-2.5 0,-1.37 -1.12,-2.5 -2.5,-2.5"
         style="fill:#3f244a;fill-opacity:1;fill-rule:nonzero;stroke:none"
         id="path162" />
      <path
         d="m 1616.22,1060.94 c -0.19,0 -0.38,0.02 -0.57,0.07 -1.34,0.31 -2.18,1.65 -1.87,2.99 l 173.44,748.7 c 0.31,1.33 1.65,2.19 3,1.86 1.35,-0.31 2.19,-1.65 1.87,-3 l -173.44,-748.69 c -0.27,-1.15 -1.3,-1.93 -2.43,-1.93"
         style="fill:#3f244a;fill-opacity:1;fill-rule:nonzero;stroke:none"
         id="path164" />
      <path
         d="m 1873.47,1985.25 c -0.12,0 -0.24,0.01 -0.36,0.03 l -215.05,30.48 c -1.37,0.19 -2.32,1.46 -2.12,2.82 0.19,1.37 1.47,2.33 2.82,2.12 l 215.05,-30.48 c 1.37,-0.18 2.32,-1.45 2.13,-2.82 -0.18,-1.25 -1.25,-2.15 -2.47,-2.15"
         style="fill:#3f244a;fill-opacity:1;fill-rule:nonzero;stroke:none"
         id="path166" />
      <path
         d="m 2008.21,1048.63 c -0.14,0 -0.28,0.01 -0.42,0.03 -1.36,0.24 -2.28,1.53 -2.05,2.88 l 76.4,458.72 c 0.23,1.37 1.55,2.27 2.88,2.06 1.36,-0.23 2.28,-1.52 2.06,-2.88 l -76.41,-458.72 c -0.21,-1.22 -1.27,-2.09 -2.46,-2.09"
         style="fill:#3f244a;fill-opacity:1;fill-rule:nonzero;stroke:none"
         id="path168" />
      <path
         d="m 1883.33,2715 70,-232.71 343.34,-408.96 L 2204.81,1990 1874,2282.16 c -47.42,41.88 -81.36,96.87 -97.54,158.04 l -58.13,219.8 165,55"
         style="fill:#be3955;fill-opacity:1;fill-rule:nonzero;stroke:none"
         id="path170" />
      <path
         d="m 1883.33,2715 -165,-55 58.13,-219.8 c 0.32,-1.19 0.75,-2.34 1.07,-3.52 l 144.29,150.39 -38.49,127.93"
         style="fill:#3f244a;fill-opacity:1;fill-rule:nonzero;stroke:none"
         id="path172" />
      <path
         d="m 1688.79,3074.08 v 0 c 57.09,2.82 108.84,-33.39 125.74,-87.99 l 99.22,-320.47 -101.25,-23.12 -60,172.5 -63.71,259.08"
         style="fill:#fccd50;fill-opacity:1;fill-rule:nonzero;stroke:none"
         id="path174" />
      <path
         d="m 1752.5,2815 60,-172.5 87.6,20 -172.1,252.15 24.5,-99.65"
         style="fill:#f89c46;fill-opacity:1;fill-rule:nonzero;stroke:none"
         id="path176" />
      <path
         d="m 1753.08,3359.21 c 38.91,55.48 74.05,115.32 88.36,181.55 14.31,66.23 5.28,140.19 -36.97,193.17 -42.25,52.97 -121.44,77.98 -181.69,46.97 -74.2,48.63 -163.19,79.75 -245.89,47.62 -82.69,-32.12 -147.99,-105.84 -169.9,-191.81 -44.18,-173.3 81,-360.42 24.12,-529.98 -23.41,-69.81 -74.82,-125.89 -119.03,-184.79 -44.2,-58.89 -83.69,-128.38 -76.66,-201.68 9.03,-94.08 97.72,-167.43 191.43,-179.8 73.87,-9.74 151.46,13.09 208.28,61.3 66.35,56.3 101.52,141.91 117.02,227.53 15.5,85.62 13.66,173.29 19.23,260.12 3.49,54.33 10.18,109.52 32.86,159 22.68,49.48 96.21,96.89 148.84,110.8"
         style="fill:#3f244a;fill-opacity:1;fill-rule:nonzero;stroke:none"
         id="path178" />
      <path
         d="M 1843.87,2680.03 1780,2825 l -91.21,249.08 -238.95,-11.81 c -137.31,-6.79 -243.37,-123.17 -237.42,-260.52 l 4.63,-106.77 v 0 l -13.26,-270.25 c -2.51,-51.16 -13.19,-101.59 -31.64,-149.36 L 1080,2036.67 h 652.44 l 45.48,302.56 7.97,88.43 c 2.67,29.73 14.39,57.94 33.57,80.82 v 0 c 40.13,47.87 49.59,114.38 24.41,171.55"
         style="fill:#fccd50;fill-opacity:1;fill-rule:nonzero;stroke:none"
         id="path180" />
      <path
         d="m 1843.87,2677.53 c -0.96,0 -1.88,0.56 -2.29,1.49 l -63.87,144.97 -50.21,137.13 c -0.48,1.3 0.19,2.74 1.48,3.21 1.3,0.47 2.74,-0.2 3.21,-1.49 l 50.16,-136.98 63.81,-144.82 c 0.55,-1.26 -0.02,-2.74 -1.29,-3.3 -0.32,-0.14 -0.67,-0.21 -1,-0.21"
         style="fill:#3f244a;fill-opacity:1;fill-rule:nonzero;stroke:none"
         id="path182" />
      <path
         d="m 1584.94,2506.62 c -1.3,0 -2.4,1 -2.49,2.32 -0.1,1.37 0.93,2.57 2.31,2.68 49.25,3.63 96.68,29.14 126.87,68.22 0.86,1.09 2.43,1.28 3.51,0.45 1.09,-0.85 1.29,-2.41 0.45,-3.51 -31.05,-40.18 -79.82,-66.41 -130.46,-70.15 -0.07,-0.01 -0.13,-0.01 -0.19,-0.01"
         style="fill:#3f244a;fill-opacity:1;fill-rule:nonzero;stroke:none"
         id="path184" />
      <path
         d="m 1446.25,3252.5 -6.25,-196.25 31.06,-31.9 c 50.46,-51.82 137.59,-34.2 163.94,33.15 v 0 l -17.5,147.5 -171.25,47.5"
         style="fill:#d5555f;fill-opacity:1;fill-rule:nonzero;stroke:none"
         id="path186" />
      <path
         d="m 1567.79,3102.93 c 20.58,-3.17 41.98,0.47 60.69,9.57 l -10.98,92.5 -171.25,47.5 -0.83,-25.93 c 9.84,-23.24 20.88,-45.93 35.86,-66.15 21.16,-28.54 51.4,-52.09 86.51,-57.49"
         style="fill:#3f244a;fill-opacity:1;fill-rule:nonzero;stroke:none"
         id="path188" />
      <path
         d="m 1771.25,3520 v -108.19 c 0,-47.53 -8.01,-94.73 -23.68,-139.6 v 0 c -24,-68.7 -88.81,-114.71 -161.57,-114.71 v 0 c -42.47,0 -83.43,15.8 -114.91,44.31 l -60.05,54.4 c -24.32,22.04 -41.64,50.74 -49.79,82.54 v 0 c 183.75,80 248.75,216.25 251.25,325 125,-51.25 158.75,-143.75 158.75,-143.75"
         style="fill:#d5555f;fill-opacity:1;fill-rule:nonzero;stroke:none"
         id="path190" />
      <path
         d="m 1583.7,3514 c -25.75,-4.88 -46.22,-21.53 -57.11,-43.29 l 126.09,23.9 c -18.09,16.27 -43.24,24.27 -68.98,19.39"
         style="fill:#3f244a;fill-opacity:1;fill-rule:nonzero;stroke:none"
         id="path192" />
      <path
         d="m 1615.08,3436.84 c 0,-10.64 -8.62,-19.27 -19.27,-19.27 -10.64,0 -19.27,8.63 -19.27,19.27 0,10.65 8.63,19.27 19.27,19.27 10.65,0 19.27,-8.62 19.27,-19.27"
         style="fill:#3f244a;fill-opacity:1;fill-rule:nonzero;stroke:none"
         id="path194" />
      <path
         d="m 1741.91,3514 c 15.55,-4.88 27.92,-21.53 34.49,-43.29 l -76.14,23.9 c 10.92,16.27 26.11,24.27 41.65,19.39"
         style="fill:#3f244a;fill-opacity:1;fill-rule:nonzero;stroke:none"
         id="path196" />
      <path
         d="m 1722.96,3436.84 c 0,-10.64 5.21,-19.27 11.64,-19.27 6.43,0 11.64,8.63 11.64,19.27 0,10.65 -5.21,19.27 -11.64,19.27 -6.43,0 -11.64,-8.62 -11.64,-19.27"
         style="fill:#3f244a;fill-opacity:1;fill-rule:nonzero;stroke:none"
         id="path198" />
      <path
         d="m 1679.11,3326.26 c -5.26,0 -10.44,0.52 -15.29,1.01 -1.37,0.14 -2.38,1.36 -2.24,2.73 0.13,1.38 1.38,2.37 2.74,2.24 9.49,-0.95 19.32,-1.94 28.46,0.74 7.98,2.32 16.61,8.75 17.89,17.88 0.96,6.86 -2.31,13.81 -5.47,20.53 l -0.83,1.78 c -12.62,27.07 -18.35,57.14 -16.6,86.95 0.08,1.38 1.24,2.45 2.65,2.35 1.37,-0.08 2.43,-1.26 2.34,-2.64 -1.71,-28.99 3.88,-58.22 16.14,-84.55 l 0.82,-1.76 c 3.48,-7.38 7.07,-15.01 5.91,-23.35 -1.6,-11.34 -11.92,-19.22 -21.46,-21.99 -4.93,-1.44 -10.03,-1.92 -15.06,-1.92"
         style="fill:#3f244a;fill-opacity:1;fill-rule:nonzero;stroke:none"
         id="path200" />
      <path
         d="m 1703.94,3295.47 c -42.71,-5.62 -85.42,-11.24 -128.13,-16.86 11.41,-24.53 39.91,-38.91 66.87,-36.67 26.96,2.24 54.05,27.45 61.26,53.53"
         style="fill:#ffffff;fill-opacity:1;fill-rule:nonzero;stroke:none"
         id="path202" />
      <path
         d="m 1247.5,2482.29 225,35.21 30.83,-262.5 543.34,166.67 31.66,-143.34 -530.64,-241.89 c -127.47,-58.11 -273.63,29.45 -282.55,169.25 l -17.64,276.6"
         style="fill:#d5555f;fill-opacity:1;fill-rule:nonzero;stroke:none"
         id="path204" />
      <path
         d="m 1472.5,2517.5 -225,-35.21 5.89,-92.4 221.97,103.29 -2.86,24.32"
         style="fill:#3f244a;fill-opacity:1;fill-rule:nonzero;stroke:none"
         id="path206" />
      <path
         d="m 1504.18,2522.46 -273.73,-42.84 -3.78,32.05 156.25,23.65 c 47.95,7.26 81.53,51.21 75.92,99.39 L 1435,2839.45 c -5.52,47.43 -32.69,89.64 -73.57,114.3 v 0 l 3.33,-1.25 c 53.25,-20.01 91.18,-67.7 98.69,-124.09 l 40.73,-305.95"
         style="fill:#f89c46;fill-opacity:1;fill-rule:nonzero;stroke:none"
         id="path208" />
      <path
         d="m 1230.44,2477.12 c -1.21,0 -2.27,0.88 -2.46,2.11 -0.22,1.37 0.72,2.64 2.08,2.86 l 271.32,42.46 -40.41,303.53 c -7.4,55.58 -44.61,102.36 -97.09,122.08 l -3.33,1.25 c -1.29,0.48 -1.95,1.92 -1.46,3.22 0.49,1.29 1.93,1.97 3.22,1.46 l 3.32,-1.25 c 54.22,-20.37 92.65,-68.69 100.3,-126.1 l 40.74,-305.95 c 0.17,-1.34 -0.76,-2.59 -2.1,-2.8 l -273.74,-42.84 c -0.13,-0.02 -0.25,-0.03 -0.39,-0.03"
         style="fill:#3f244a;fill-opacity:1;fill-rule:nonzero;stroke:none"
         id="path210" />
      <path
         d="m 1392.24,2218.42 c -1.07,0 -2.06,0.69 -2.39,1.77 -0.4,1.31 0.34,2.71 1.66,3.12 l 574.15,176.12 c 1.32,0.36 2.72,-0.34 3.12,-1.66 0.4,-1.31 -0.34,-2.71 -1.66,-3.12 l -574.15,-176.12 c -0.24,-0.07 -0.48,-0.11 -0.73,-0.11"
         style="fill:#3f244a;fill-opacity:1;fill-rule:nonzero;stroke:none"
         id="path212" />
      <path
         d="M 3596.92,3401.67 V 3165 c 0,-71.8 -58.2,-130 -130,-130 H 3445 l -20,-31.67 h -255 l 86.67,135 340.25,263.34"
         style="fill:#fac1a4;fill-opacity:1;fill-rule:nonzero;stroke:none"
         id="path214" />
      <path
         d="M 3597.5,3356.25 3538.75,3275 v -87.5 c 0,-49.71 -40.29,-90 -90,-90 h -156.69 c -30.97,0 -59.81,15.95 -76.29,42.16 -161.65,256.99 -119.85,451.43 59.23,425.34 153.75,222.5 546.25,-42.5 322.5,-208.75"
         style="fill:#742844;fill-opacity:1;fill-rule:nonzero;stroke:none"
         id="path216" />
      <path
         d="M 3573.76,3323.42 3538.75,3275 v -85 c 4.61,-13.9 18,-20.44 28.07,-17.49 10.06,2.96 18.59,13.12 25.47,24.65 8.68,14.53 15.49,32.05 17.98,51.3 2.49,19.24 0.31,40.26 -7.35,56.06 -7.65,15.79 -16.24,18.9 -29.16,18.9"
         style="fill:#fac1a4;fill-opacity:1;fill-rule:nonzero;stroke:none"
         id="path218" />
      <path
         d="m 3561.84,3169.32 c -2.84,0 -5.78,0.56 -8.61,1.66 -1.29,0.49 -1.93,1.94 -1.42,3.23 0.49,1.29 1.94,1.93 3.23,1.42 3.76,-1.45 7.7,-1.7 11.07,-0.72 8.04,2.36 16.12,10.28 24.04,23.54 9.3,15.56 15.4,32.97 17.64,50.33 2.56,19.75 -0.1,40.18 -7.12,54.65 -4.16,8.59 -8.63,13.43 -14.49,15.68 -1.29,0.49 -1.93,1.94 -1.44,3.23 0.49,1.28 1.93,1.92 3.23,1.43 7.13,-2.74 12.44,-8.34 17.21,-18.16 7.53,-15.54 10.28,-36.48 7.57,-57.48 -2.33,-18.03 -8.66,-36.1 -18.31,-52.25 -8.7,-14.57 -17.51,-23 -26.92,-25.76 -1.81,-0.54 -3.72,-0.8 -5.68,-0.8"
         style="fill:#3f244a;fill-opacity:1;fill-rule:nonzero;stroke:none"
         id="path220" />
      <path
         d="m 3248.19,708.242 c -16.45,19.906 -29.37,42.5 -38.19,66.778 l -6.67,18.312 h -207.72 l -16.15,-165 h 311.18 c -8.62,29.129 -22.98,56.348 -42.45,79.91"
         style="fill:#3a476c;fill-opacity:1;fill-rule:nonzero;stroke:none"
         id="path222" />
      <path
         d="m 3290.64,628.332 h -311.18 l -4.4,-45 H 3300 l -3.2,18.777 c -1.51,8.891 -3.62,17.633 -6.16,26.223"
         style="fill:#ffffff;fill-opacity:1;fill-rule:nonzero;stroke:none"
         id="path224" />
      <path
         d="m 3203.33,793.332 h -207.72 l -6.23,-63.621 z"
         style="fill:#3f244a;fill-opacity:1;fill-rule:nonzero;stroke:none"
         id="path226" />
      <path
         d="m 3380.3,1800 -80,-1006.668 h -366.62 l 78.41,809.998 368.21,196.67"
         style="fill:#ae2b55;fill-opacity:1;fill-rule:nonzero;stroke:none"
         id="path228" />
      <path
         d="m 3340.3,1296.67 -348.13,100.94 19.92,205.72 368.21,196.67 -40,-503.33"
         style="fill:#472042;fill-opacity:1;fill-rule:nonzero;stroke:none"
         id="path230" />
      <path
         d="m 3900.56,697.102 v 0 c -35.11,17.089 -64.26,44.359 -83.63,78.269 l -10.26,17.961 H 3620 l -35.36,-165 h 393.47 c -19.06,29.25 -45.63,53.219 -77.55,68.77"
         style="fill:#3a476c;fill-opacity:1;fill-rule:nonzero;stroke:none"
         id="path232" />
      <path
         d="m 3978.11,628.332 h -393.47 l -9.64,-45 h 425 l -0.59,1.707 c -5.24,15.43 -12.56,29.859 -21.3,43.293"
         style="fill:#ffffff;fill-opacity:1;fill-rule:nonzero;stroke:none"
         id="path234" />
      <path
         d="M 3806.67,793.332 H 3620 l -13.63,-63.621 z"
         style="fill:#3f244a;fill-opacity:1;fill-rule:nonzero;stroke:none"
         id="path236" />
      <path
         d="m 3401.77,2036.67 398.73,-176.43 c 81.57,-36.08 131.43,-119.76 124.37,-208.67 l -68.2,-858.238 h -366.63 l 78.42,809.998 -235.21,26.31 h -584.34 v 407.03 h 652.86"
         style="fill:#ae2b55;fill-opacity:1;fill-rule:nonzero;stroke:none"
         id="path238" />
      <path
         d="M 3568.46,1603.33 H 3825 l -15.99,-11.84 c -70.58,-52.27 -161.85,-67.8 -245.74,-41.8 v 0 l 5.19,53.64"
         style="fill:#472042;fill-opacity:1;fill-rule:nonzero;stroke:none"
         id="path240" />
      <path
         d="m 3825,890.832 h -291.67 c -1.38,0 -2.5,1.117 -2.5,2.5 0,1.379 1.12,2.5 2.5,2.5 H 3825 c 1.38,0 2.5,-1.121 2.5,-2.5 0,-1.383 -1.12,-2.5 -2.5,-2.5"
         style="fill:#3f244a;fill-opacity:1;fill-rule:nonzero;stroke:none"
         id="path242" />
      <path
         d="m 3271.13,890.832 h -291.67 c -1.38,0 -2.5,1.117 -2.5,2.5 0,1.379 1.12,2.5 2.5,2.5 h 291.67 c 1.38,0 2.5,-1.121 2.5,-2.5 0,-1.383 -1.12,-2.5 -2.5,-2.5"
         style="fill:#3f244a;fill-opacity:1;fill-rule:nonzero;stroke:none"
         id="path244" />
      <path
         d="m 3806.67,832.5 c -0.07,0 -0.15,0 -0.21,0.012 -1.38,0.117 -2.4,1.34 -2.28,2.699 l 61.66,702.329 c 0.12,1.38 1.31,2.45 2.7,2.27 1.38,-0.11 2.4,-1.33 2.28,-2.7 l -61.66,-702.321 c -0.12,-1.309 -1.2,-2.289 -2.49,-2.289"
         style="fill:#3f244a;fill-opacity:1;fill-rule:nonzero;stroke:none"
         id="path246" />
      <path
         d="m 4086.25,2747.5 -89.58,159.17 v 0 c 19.26,8.89 42.08,4 56.02,-11.99 l 27.31,-31.35 6.25,-115.83"
         style="fill:#f79484;fill-opacity:1;fill-rule:nonzero;stroke:none"
         id="path248" />
      <path
         d="m 4046.25,2693.75 40,53.75 -20,117.5 c -1.87,93.06 38.54,141.78 59.31,160.61 6.45,5.85 15.98,6.63 23.18,1.72 l 0.23,-0.15 c 8.6,-5.86 10.52,-17.47 4.75,-26.13 -30.68,-45.96 -33.72,-93.55 -33.72,-93.55 23.44,47.77 59.21,76.04 77.35,88.1 6.6,4.38 15.18,4.04 21.49,-0.74 l 55.62,-42.14 c 8.48,-6.43 9.9,-18.65 3.01,-26.77 -28.59,-33.69 -43.72,-80.95 -43.72,-80.95 20,-78.75 -17.5,-131.25 -33.75,-140 l -65,-103.75 -88.75,92.5"
         style="fill:#fac1a4;fill-opacity:1;fill-rule:nonzero;stroke:none"
         id="path250" />
      <path
         d="m 2719.99,2765 v 0 c 35.59,157.87 175.81,270 337.63,270 h 337.59 c 138.83,0 263.71,-84.4 315.48,-213.22 L 3840,2500 4026.67,2716.67 C 4160,2710 4183.33,2573.33 4183.33,2573.33 L 3926.95,2245.74 C 3852.69,2150.84 3704.13,2169 3654.91,2279 L 3540,2535.83 3435,1993.33 c -158.33,-93.33 -621.68,-70 -715.01,-20 V 2765"
         style="fill:#51adbf;fill-opacity:1;fill-rule:nonzero;stroke:none"
         id="path252" />
      <path
         d="m 3540,2535.83 47.08,243.28 9.84,-370.49 z"
         style="fill:#2e819d;fill-opacity:1;fill-rule:nonzero;stroke:none"
         id="path254" />
      <path
         d="m 3840,2500 57.82,-143.88 5.52,76.27 c 2.64,36.51 -11.08,72.29 -37.44,97.67 v 0 L 3840,2500"
         style="fill:#2e819d;fill-opacity:1;fill-rule:nonzero;stroke:none"
         id="path256" />
      <path
         d="m 4164.19,2890.72 c -0.4,0 -0.8,0.1 -1.17,0.3 -1.22,0.64 -1.68,2.15 -1.04,3.37 15.93,30.09 38.45,57.17 65.12,78.31 1.08,0.84 2.65,0.69 3.52,-0.41 0.84,-1.08 0.67,-2.65 -0.41,-3.51 -26.14,-20.71 -48.2,-47.25 -63.81,-76.73 -0.45,-0.84 -1.31,-1.33 -2.21,-1.33"
         style="fill:#3f244a;fill-opacity:1;fill-rule:nonzero;stroke:none"
         id="path258" />
      <path
         d="m 4206.02,2879.52 c -0.44,0 -0.89,0.11 -1.3,0.36 -1.18,0.71 -1.56,2.25 -0.84,3.43 13.54,22.38 30.19,42.69 49.5,60.34 1.01,0.92 2.6,0.86 3.53,-0.16 0.93,-1.02 0.86,-2.6 -0.15,-3.53 -18.96,-17.33 -35.3,-37.26 -48.61,-59.24 -0.46,-0.77 -1.29,-1.2 -2.13,-1.2"
         style="fill:#3f244a;fill-opacity:1;fill-rule:nonzero;stroke:none"
         id="path260" />
      <path
         d="m 4070.84,2724.29 c -0.52,0 -1.05,0.16 -1.49,0.49 -1.11,0.83 -1.34,2.39 -0.51,3.5 l 14.76,19.85 -15.22,89.51 c -0.24,1.36 0.68,2.65 2.04,2.88 1.46,0.25 2.66,-0.68 2.88,-2.04 l 15.41,-90.56 c 0.12,-0.67 -0.05,-1.36 -0.46,-1.91 l -15.41,-20.72 c -0.49,-0.66 -1.24,-1 -2,-1"
         style="fill:#3f244a;fill-opacity:1;fill-rule:nonzero;stroke:none"
         id="path262" />
      <path
         d="m 3458.67,2113.09 c -0.16,0 -0.32,0.01 -0.48,0.04 -1.36,0.27 -2.24,1.58 -1.98,2.93 l 128.42,663.52 c 0.26,1.37 1.58,2.24 2.93,1.99 1.36,-0.27 2.24,-1.58 1.98,-2.93 l -128.42,-663.53 c -0.24,-1.19 -1.28,-2.02 -2.45,-2.02"
         style="fill:#3f244a;fill-opacity:1;fill-rule:nonzero;stroke:none"
         id="path264" />
      <path
         d="m 3897.82,2353.62 c -0.98,0 -1.92,0.6 -2.32,1.58 l -157.28,391.37 c -0.52,1.28 0.11,2.74 1.38,3.25 1.29,0.52 2.74,-0.1 3.26,-1.39 l 157.29,-391.38 c 0.5,-1.28 -0.11,-2.73 -1.4,-3.25 -0.3,-0.12 -0.62,-0.18 -0.93,-0.18"
         style="fill:#3f244a;fill-opacity:1;fill-rule:nonzero;stroke:none"
         id="path266" />
      <path
         d="m 3840,2497.5 c -0.58,0 -1.16,0.2 -1.63,0.61 -1.05,0.9 -1.16,2.48 -0.26,3.52 l 109.55,127.16 c 0.9,1.04 2.49,1.16 3.52,0.26 1.05,-0.9 1.16,-2.48 0.27,-3.52 l -109.56,-127.16 c -0.49,-0.58 -1.19,-0.87 -1.89,-0.87"
         style="fill:#3f244a;fill-opacity:1;fill-rule:nonzero;stroke:none"
         id="path268" />
      <path
         d="m 3259.65,2043.86 c -0.24,0 -0.48,0.03 -0.71,0.1 -73.02,21.94 -140.64,61.48 -195.57,114.35 -0.99,0.96 -1.02,2.54 -0.06,3.54 0.96,0.98 2.54,1 3.53,0.05 54.35,-52.31 121.28,-91.44 193.53,-113.15 1.32,-0.39 2.08,-1.79 1.68,-3.12 -0.33,-1.07 -1.32,-1.77 -2.4,-1.77"
         style="fill:#3f244a;fill-opacity:1;fill-rule:nonzero;stroke:none"
         id="path270" />
      <path
         d="m 3198.97,2757.34 c -1.04,0 -2,0.64 -2.36,1.68 -0.46,1.3 0.24,2.72 1.54,3.18 l 96.55,33.65 c 1.31,0.48 2.73,-0.23 3.18,-1.53 0.46,-1.3 -0.23,-2.73 -1.53,-3.18 l -96.56,-33.66 c -0.27,-0.1 -0.55,-0.14 -0.82,-0.14"
         style="fill:#3f244a;fill-opacity:1;fill-rule:nonzero;stroke:none"
         id="path272" />
      <path
         d="m 3428.59,1495.18 c -12.57,88.56 -88.29,154.46 -177.74,154.69 l -50.98,0.14 c -38.15,0.1 -70.92,27.12 -78.28,64.56 l -164.82,837.83 c -48.3,245.54 -263.59,422.6 -513.84,422.6 v 0 h -165.89 l 26.44,-26.44 c -164.54,-64.88 -270.03,-240.72 -233.4,-426.91 l 174.3,-886.04 C 2265.6,1527.76 2360.15,1450 2470.06,1450 H 3435 l -6.41,45.18"
         style="fill:#3e4c78;fill-opacity:1;fill-rule:nonzero;stroke:none"
         id="path274" />
      <path
         d="m 2078.49,1635.61 -174.31,886.04 c -46.19,234.81 133.55,453.35 372.86,453.35 v 0 c 250.25,0 465.53,-177.06 513.83,-422.6 l 180.36,-916.79 C 2992.44,1527.76 3086.99,1450 3196.9,1450 h 8.1 -900.84 c -109.91,0 -204.46,77.76 -225.67,185.61"
         style="fill:#73769e;fill-opacity:1;fill-rule:nonzero;stroke:none"
         id="path276" />
      <path
         d="m 2353.33,1450 h -49.17 l -13.14,-117.88 52.32,28.27 9.99,89.61"
         style="fill:#3f244a;fill-opacity:1;fill-rule:nonzero;stroke:none"
         id="path278" />
      <path
         d="M 2291.02,1332.12 2207.5,583.332 h 49.17 l 86.67,777.058 -52.32,-28.27"
         style="fill:#93a2b0;fill-opacity:1;fill-rule:nonzero;stroke:none"
         id="path280" />
      <path
         d="m 2719.99,1345.21 -84.98,-761.878 h 49.17 l 88.13,790.148 -52.32,-28.27"
         style="fill:#93a2b0;fill-opacity:1;fill-rule:nonzero;stroke:none"
         id="path282" />
      <path
         d="m 2780.85,1450 h -49.17 l -11.69,-104.79 52.32,28.27 8.54,76.52"
         style="fill:#3f244a;fill-opacity:1;fill-rule:nonzero;stroke:none"
         id="path284" />
      <path
         d="m 2965.86,1450 h -49.17 l 12,-107.54 46.37,25.05 -9.2,82.49"
         style="fill:#3f244a;fill-opacity:1;fill-rule:nonzero;stroke:none"
         id="path286" />
      <path
         d="m 3062.53,583.332 -87.47,784.178 -46.37,-25.05 84.67,-759.128 h 49.17"
         style="fill:#93a2b0;fill-opacity:1;fill-rule:nonzero;stroke:none"
         id="path288" />
      <path
         d="m 3393.38,1450 h -49.17 l 11.19,-100.31 46.37,25.05 -8.39,75.26"
         style="fill:#3f244a;fill-opacity:1;fill-rule:nonzero;stroke:none"
         id="path290" />
      <path
         d="m 3490.04,583.332 -88.27,791.408 -46.37,-25.05 85.47,-766.358 h 49.17"
         style="fill:#93a2b0;fill-opacity:1;fill-rule:nonzero;stroke:none"
         id="path292" />
      <path
         d="m 5963.37,2903.51 88.75,113.67 c 22.32,28.6 56.59,45.32 92.88,45.32 l -19.42,3.43 c -14.25,2.51 -26.04,12.53 -30.81,26.19 l -51.02,146 -150.42,-79.79 22.02,-115.96 c 1.92,-10.08 -0.12,-20.51 -5.67,-29.14 l -91.92,-142.61 1.73,-0.83 c 49.92,-23.96 109.8,-9.93 143.88,33.72"
         style="fill:#fac1a4;fill-opacity:1;fill-rule:nonzero;stroke:none"
         id="path294" />
      <path
         d="M 6256.67,1957.34 6145,3062.5 c -36.29,0 -70.56,-16.72 -92.88,-45.32 l -88.75,-113.67 c -34.08,-43.65 -93.96,-57.68 -143.88,-33.72 l -1.73,0.83 -149.48,-231.9 c -19.53,-30.32 -22.02,-69.22 -4.45,-100.71 8.71,-15.62 19.2,-28.73 30.04,-39.61 40.92,-41.08 57.23,-100.68 46.41,-157.64 L 5698.33,2120 6256.67,1957.34"
         style="fill:#f46a9a;fill-opacity:1;fill-rule:nonzero;stroke:none"
         id="path296" />
      <path
         d="m 5907.47,3083.86 c 121.35,38.39 140.37,114.43 136.28,154.26 l -150.42,-79.79 14.14,-74.47"
         style="fill:#3f244a;fill-opacity:1;fill-rule:nonzero;stroke:none"
         id="path298" />
      <path
         d="m 6081.11,2838.99 -17.52,-498.78 c -2.02,-57.64 -48.24,-103.94 -105.88,-106.06 l -239.36,-8.81 -20.02,-105.34 558.34,-162.66 -89.08,881.65 h -86.48"
         style="fill:#f14984;fill-opacity:1;fill-rule:nonzero;stroke:none"
         id="path300" />
      <path
         d="m 5923.62,2463.24 c -0.2,0 -0.41,0.03 -0.61,0.08 -49.85,12.68 -95.71,43.86 -125.83,85.54 -0.8,1.12 -0.56,2.68 0.56,3.49 1.11,0.82 2.67,0.56 3.5,-0.56 29.44,-40.75 74.27,-71.23 123,-83.63 1.34,-0.34 2.15,-1.7 1.8,-3.03 -0.28,-1.14 -1.3,-1.89 -2.42,-1.89"
         style="fill:#3f244a;fill-opacity:1;fill-rule:nonzero;stroke:none"
         id="path302" />
      <path
         d="m 6192.33,3591.2 c 24.99,96.91 117.51,172.26 217.47,177.11 37.02,1.8 76.8,-6.5 102.66,-33.05 21.89,-22.45 30.7,-54.67 33.48,-85.89 4.91,-55.34 -6.56,-110.72 -19.09,-164.84 -12.55,-54.12 -26.32,-108.65 -26.11,-164.2 0.22,-55.55 16.12,-113.38 55.32,-152.74 -102.1,-17.02 -209.41,33.77 -270.43,117.38 -61.02,83.6 -119.14,206 -93.3,306.23"
         style="fill:#f79447;fill-opacity:1;fill-rule:nonzero;stroke:none"
         id="path304" />
      <path
         d="m 5782.92,3367.93 c -35.19,38.47 -57.71,88.33 -63.31,140.17 -3.71,34.29 0.03,69.87 14.47,101.2 14.46,31.32 40.24,58.02 72.55,70.08 32.33,12.06 71.03,8.08 98.15,-13.24 50.15,30.46 112.01,38.45 169.18,25.26 57.17,-13.19 108.69,-49.43 140.43,-98.78 39.34,-61.17 47.11,-139.87 27.75,-209.97 -18.53,-67.05 -64.73,-129.85 -130.67,-152.02 -56.7,-19.06 -120.3,-5.82 -173.12,22.28 -52.83,28.1 -115.04,70.88 -155.43,115.02"
         style="fill:#f79447;fill-opacity:1;fill-rule:nonzero;stroke:none"
         id="path306" />
      <path
         d="m 6111.47,3228.13 c -1.04,0 -2.02,0.66 -2.37,1.71 -0.44,1.31 0.27,2.72 1.57,3.16 59.53,20.01 108.97,77.61 129.06,150.31 20,72.4 9.74,150.14 -27.44,207.95 -31.51,49 -82.13,84.61 -138.89,97.7 -1.34,0.32 -2.18,1.66 -1.87,3 0.32,1.35 1.62,2.18 3,1.88 58.01,-13.39 109.76,-49.79 141.96,-99.87 37.94,-58.99 48.43,-138.24 28.06,-211.99 -20.53,-74.28 -71.21,-133.19 -132.27,-153.71 -0.27,-0.09 -0.54,-0.14 -0.81,-0.14"
         style="fill:#3f244a;fill-opacity:1;fill-rule:nonzero;stroke:none"
         id="path308" />
      <path
         d="m 5853.33,3551.67 v 0 c -50.54,-40.6 -84.85,-97.96 -96.71,-161.7 l -4.95,-26.64 -55,-88.33 H 5755 l 8.23,-86.46 c 3.12,-32.7 24.8,-60.66 55.67,-71.84 v 0 c 20.75,-7.5 43.6,-6.64 63.73,2.4 l 112.73,50.67 c 25.14,11.29 41.31,36.29 41.31,63.85 v 53.05 c -19.64,8.48 -45.88,22.9 -54.73,42.37 -8.83,19.48 -10.15,42.26 -3.62,62.63 -54.78,34.29 -102.84,99.28 -124.99,160"
         style="fill:#fac1a4;fill-opacity:1;fill-rule:nonzero;stroke:none"
         id="path310" />
      <path
         d="m 6063.5,3348.73 c 10.23,5.42 21.95,8.63 33.43,7.18 11.5,-1.45 22.64,-8.03 27.88,-18.37 5.08,-10.02 4.16,-22.01 1.73,-32.98 -4.13,-18.7 -12.31,-36.48 -23.82,-51.77 -8.36,-11.13 -18.82,-21.17 -31.75,-26.33 -12.93,-5.17 -28.64,-4.75 -39.84,3.53 -19.07,14.09 -13.17,42.55 -9.03,62.24 4.98,23.65 19.85,45.08 41.4,56.5"
         style="fill:#fac1a4;fill-opacity:1;fill-rule:nonzero;stroke:none"
         id="path312" />
      <path
         d="m 6053.51,3243.07 c -2.93,0 -7.13,0.52 -10.49,3 -8.82,6.52 -4.32,27.9 -1.35,42.05 3.93,18.61 15.59,34.67 31.19,42.94 6.42,3.4 12.8,5.19 18.46,5.19 1.03,0 2.08,-0.05 3.1,-0.19 5.58,-0.69 10.62,-3.74 12.56,-7.57 2.02,-3.99 2.03,-10.59 0.04,-19.61 -3.5,-15.86 -10.52,-31.1 -20.28,-44.07 -7.5,-9.98 -15.3,-16.63 -23.2,-19.78 -3.2,-1.28 -6.67,-1.96 -10.03,-1.96"
         style="fill:#f79484;fill-opacity:1;fill-rule:nonzero;stroke:none"
         id="path314" />
      <path
         d="m 5842.29,3422.77 c 22.8,-4.31 40.92,-19.05 50.55,-38.32 l -111.61,21.16 c 16.01,14.4 38.27,21.48 61.06,17.16"
         style="fill:#3f244a;fill-opacity:1;fill-rule:nonzero;stroke:none"
         id="path316" />
      <path
         d="m 5814.51,3354.47 c 0,-9.42 7.64,-17.06 17.06,-17.06 9.42,0 17.05,7.64 17.05,17.06 0,9.42 -7.63,17.06 -17.05,17.06 -9.42,0 -17.06,-7.64 -17.06,-17.06"
         style="fill:#3f244a;fill-opacity:1;fill-rule:nonzero;stroke:none"
         id="path318" />
      <path
         d="m 5876.63,3226.51 c -32.83,7.36 -67.28,7.36 -100.12,0.01 2.39,-11.07 12.85,-22.1 22.26,-28.4 9.41,-6.3 21.3,-8.78 32.45,-6.77 17.05,3.07 33.24,22.82 45.41,35.16"
         style="fill:#ffffff;fill-opacity:1;fill-rule:nonzero;stroke:none"
         id="path320" />
      <path
         d="m 5506.45,2175.9 655.42,-190.94 c 112.75,-32.84 224.06,55.81 217.26,173.06 L 6359.42,2497.77 6130,2465 l 17.5,-293.75 -482.33,60.8 c -40.68,5.13 -81.85,-4.62 -115.9,-27.45 l -42.82,-28.7"
         style="fill:#fac1a4;fill-opacity:1;fill-rule:nonzero;stroke:none"
         id="path322" />
      <path
         d="m 6130,2465 229.42,32.77 5.15,-88.68 c -98.74,-24.09 -231.64,6.77 -231.64,6.77 L 6130,2465"
         style="fill:#3f244a;fill-opacity:1;fill-rule:nonzero;stroke:none"
         id="path324" />
      <path
         d="m 6145,3062.5 v 0 c 100.28,0 185.17,-74.02 198.81,-173.37 L 6400,2480 c -115,-52.5 -291.49,-50 -291.49,-50 l -27.4,408.99 c -5.13,76.77 15.69,153.04 59.12,216.55 l 4.77,6.96"
         style="fill:#f46a9a;fill-opacity:1;fill-rule:nonzero;stroke:none"
         id="path326" />
      <path
         d="m 6104.33,2489.95 c -1.31,0 -2.41,1.02 -2.49,2.34 l -23.22,346.53 c -2.81,41.86 1.97,83.44 14.17,123.59 0.41,1.33 1.85,2.06 3.12,1.67 1.33,-0.4 2.07,-1.8 1.67,-3.12 -12.03,-39.57 -16.73,-80.55 -13.98,-121.8 l 23.22,-346.54 c 0.09,-1.37 -0.95,-2.57 -2.33,-2.66 -0.06,0 -0.11,-0.01 -0.16,-0.01"
         style="fill:#3f244a;fill-opacity:1;fill-rule:nonzero;stroke:none"
         id="path328" />
      <path
         d="m 6388.82,2558.93 c -1.23,0 -2.31,0.91 -2.48,2.16 l -45.01,327.69 c -0.19,1.37 0.77,2.64 2.14,2.82 1.47,0.18 2.63,-0.77 2.82,-2.13 l 45.01,-327.7 c 0.18,-1.36 -0.77,-2.63 -2.14,-2.81 -0.12,-0.02 -0.23,-0.03 -0.34,-0.03"
         style="fill:#3f244a;fill-opacity:1;fill-rule:nonzero;stroke:none"
         id="path330" />
      <path
         d="m 6236.18,2157.57 c -0.1,0 -0.2,0.01 -0.31,0.02 l -477.09,60.13 c -1.37,0.18 -2.34,1.43 -2.17,2.8 0.17,1.35 1.29,2.34 2.79,2.17 l 477.09,-60.14 c 1.37,-0.18 2.35,-1.43 2.17,-2.79 -0.15,-1.26 -1.24,-2.19 -2.48,-2.19"
         style="fill:#3f244a;fill-opacity:1;fill-rule:nonzero;stroke:none"
         id="path332" />
      <path
         d="m 6208.77,2488.64 c -1.2,0 -2.26,0.86 -2.46,2.08 -0.24,1.36 0.67,2.65 2.03,2.88 31.41,5.44 61.25,18.73 86.3,38.45 1.08,0.85 2.65,0.66 3.5,-0.42 0.86,-1.09 0.67,-2.66 -0.42,-3.51 -25.69,-20.22 -56.3,-33.86 -88.52,-39.44 -0.15,-0.03 -0.29,-0.04 -0.43,-0.04"
         style="fill:#3f244a;fill-opacity:1;fill-rule:nonzero;stroke:none"
         id="path334" />
      <path
         d="m 4762.01,1045.44 21.56,90.97 61.54,151.45 -166.76,67.76 -33.52,-82.49 c -15.02,-36.98 -44.84,-65.49 -81.66,-79.3 7.44,-22.87 10.51,-47.17 8.71,-71.15 l 190.13,-77.24"
         style="fill:#fac1a4;fill-opacity:1;fill-rule:nonzero;stroke:none"
         id="path336" />
      <path
         d="m 4571.88,1122.68 c 1.8,23.98 -1.27,48.28 -8.71,71.15 -6.19,-2.33 -12.51,-4.35 -19.05,-5.79 l -15.65,-3.48 c -19.95,-4.42 -40.63,-4.48 -60.6,-0.18 l -25.28,5.45 c -52.59,11.33 -107.07,-8.05 -140.68,-50.07 l 440.07,-178.791 20.03,84.471 -190.13,77.24"
         style="fill:#f46a9a;fill-opacity:1;fill-rule:nonzero;stroke:none"
         id="path338" />
      <path
         d="m 4678.35,1355.62 166.76,-67.76 -23.53,-57.91 -150.76,107.13 7.53,18.54"
         style="fill:#3f244a;fill-opacity:1;fill-rule:nonzero;stroke:none"
         id="path340" />
      <path
         d="M 4622.05,1372.73 4947.5,2027.5 5205.75,1894.79 5001.67,1205 4622.05,1372.73"
         style="fill:#3993d7;fill-opacity:1;fill-rule:nonzero;stroke:none"
         id="path342" />
      <path
         d="m 6256.67,1957.34 -981.34,285.89 c -111.53,32.49 -230.33,-19.57 -282.04,-123.6 l -45.79,-92.13 720,-370 h 317.12 c 143.35,0 261.72,112.03 269.59,255.18 l 2.46,44.66"
         style="fill:#3993d7;fill-opacity:1;fill-rule:nonzero;stroke:none"
         id="path344" />
      <path
         d="m 5954.35,2042.92 c -0.24,0 -0.47,0.03 -0.71,0.1 l -637.56,185.73 c -1.31,0.39 -2.08,1.78 -1.7,3.11 0.4,1.31 1.78,2.08 3.11,1.69 l 637.56,-185.73 c 1.32,-0.39 2.08,-1.78 1.7,-3.1 -0.32,-1.09 -1.32,-1.8 -2.4,-1.8"
         style="fill:#3f244a;fill-opacity:1;fill-rule:nonzero;stroke:none"
         id="path346" />
      <path
         d="m 6256.67,1954.84 c -0.23,0 -0.47,0.03 -0.7,0.1 l -199.08,58 c -1.31,0.39 -2.08,1.78 -1.69,3.1 0.39,1.32 1.79,2.09 3.1,1.7 l 199.07,-57.99 c 1.32,-0.39 2.08,-1.78 1.7,-3.11 -0.32,-1.08 -1.32,-1.8 -2.4,-1.8"
         style="fill:#3f244a;fill-opacity:1;fill-rule:nonzero;stroke:none"
         id="path348" />
      <path
         d="m 5161.34,1917.61 -112.9,-20.47 c -95.79,-17.37 -167.08,-98.29 -172.24,-195.51 L 4835,925 h 447.5 l -65,700 450,32.5 -506.16,260.11"
         style="fill:#3993d7;fill-opacity:1;fill-rule:nonzero;stroke:none"
         id="path350" />
      <path
         d="m 5128.34,1911.62 c 0,0 323.91,-269.67 323.54,-269.7 -0.35,-0.02 215.62,15.58 215.62,15.58 l -506.16,260.11 -33,-5.99"
         style="fill:#257fbf;fill-opacity:1;fill-rule:nonzero;stroke:none"
         id="path352" />
      <path
         d="m 4889.43,1762.24 c -0.29,0 -0.59,0.05 -0.89,0.16 -1.28,0.49 -1.93,1.93 -1.44,3.22 26.23,69.4 87.88,120.74 160.89,133.98 l 112.9,20.47 c 1.42,0.27 2.65,-0.67 2.91,-2.01 0.24,-1.36 -0.66,-2.67 -2.01,-2.91 l -112.9,-20.47 c -71.3,-12.93 -131.5,-63.06 -157.12,-130.83 -0.37,-1 -1.33,-1.61 -2.34,-1.61"
         style="fill:#3f244a;fill-opacity:1;fill-rule:nonzero;stroke:none"
         id="path354" />
      <path
         d="m 5217.5,1622.5 c -1.3,0 -2.4,1.01 -2.49,2.32 -0.11,1.38 0.94,2.57 2.31,2.67 l 367.4,26.53 c 1.31,0.31 2.57,-0.93 2.66,-2.31 0.11,-1.38 -0.93,-2.57 -2.31,-2.67 l -367.39,-26.53 c -0.06,-0.01 -0.12,-0.01 -0.18,-0.01"
         style="fill:#3f244a;fill-opacity:1;fill-rule:nonzero;stroke:none"
         id="path356" />
      <path
         d="m 4849.26,1191.33 c -0.04,0 -0.09,0 -0.14,0 -1.38,0.08 -2.43,1.25 -2.36,2.63 l 24.6,463.68 c 0.08,1.32 1.18,2.36 2.5,2.36 0.04,0 0.09,0 0.13,0 1.38,-0.08 2.44,-1.25 2.37,-2.64 l -24.6,-463.67 c -0.08,-1.33 -1.18,-2.36 -2.5,-2.36"
         style="fill:#3f244a;fill-opacity:1;fill-rule:nonzero;stroke:none"
         id="path358" />
      <path
         d="m 5248.35,1290.28 c -1.28,0 -2.37,0.98 -2.49,2.27 l -40.38,434.87 c -0.13,1.38 0.89,2.6 2.25,2.73 1.39,0.22 2.6,-0.89 2.73,-2.26 l 40.38,-434.87 c 0.13,-1.38 -0.89,-2.6 -2.26,-2.73 -0.07,-0.01 -0.15,-0.01 -0.23,-0.01"
         style="fill:#3f244a;fill-opacity:1;fill-rule:nonzero;stroke:none"
         id="path360" />
      <path
         d="M 5129.26,669.129 5115,761.52 V 925 h -180 v -89.02 c 0,-39.921 -16.89,-77.57 -45.81,-104.218 15.5,-18.391 27.49,-39.742 34.85,-62.633 h 205.22"
         style="fill:#fac1a4;fill-opacity:1;fill-rule:nonzero;stroke:none"
         id="path362" />
      <path
         d="m 4924.04,669.129 c -7.36,22.891 -19.35,44.242 -34.85,62.633 -4.85,-4.473 -9.95,-8.723 -15.47,-12.532 l -13.19,-9.109 c -16.82,-11.609 -35.95,-19.449 -56.08,-22.98 l -25.47,-4.461 c -52.99,-9.301 -96.16,-47.782 -111.48,-99.348 h 475 l -13.24,85.797 h -205.22"
         style="fill:#f46a9a;fill-opacity:1;fill-rule:nonzero;stroke:none"
         id="path364" />
      <path
         d="m 4935,925 h 180 V 862.5 L 4935,905 v 20"
         style="fill:#3f244a;fill-opacity:1;fill-rule:nonzero;stroke:none"
         id="path366" />
      <path
         d="m 6584.62,1475.41 h 49.17 l 13.14,-117.88 -52.32,28.27 -9.99,89.61"
         style="fill:#3f244a;fill-opacity:1;fill-rule:nonzero;stroke:none"
         id="path368" />
      <path
         d="m 6646.93,1357.53 83.52,-748.78 h -49.17 l -86.67,777.05 52.32,-28.27"
         style="fill:#93a2b0;fill-opacity:1;fill-rule:nonzero;stroke:none"
         id="path370" />
      <path
         d="m 6268.51,1370.62 84.98,-761.87 h -49.17 l -88.13,790.15 52.32,-28.28"
         style="fill:#93a2b0;fill-opacity:1;fill-rule:nonzero;stroke:none"
         id="path372" />
      <path
         d="m 6207.66,1475.41 h 49.17 l 11.68,-104.79 -52.32,28.28 -8.53,76.51"
         style="fill:#3f244a;fill-opacity:1;fill-rule:nonzero;stroke:none"
         id="path374" />
      <path
         d="m 6108.31,1475.41 h 49.17 l -11.99,-107.54 -46.38,25.06 9.2,82.48"
         style="fill:#3f244a;fill-opacity:1;fill-rule:nonzero;stroke:none"
         id="path376" />
      <path
         d="m 6011.64,608.75 87.47,784.18 46.38,-25.06 -84.68,-759.12 h -49.17"
         style="fill:#93a2b0;fill-opacity:1;fill-rule:nonzero;stroke:none"
         id="path378" />
      <path
         d="m 5702.68,1475.41 h 49.17 l -11.2,-100.31 -46.37,25.06 8.4,75.25"
         style="fill:#3f244a;fill-opacity:1;fill-rule:nonzero;stroke:none"
         id="path380" />
      <path
         d="m 5606.01,608.75 88.27,791.41 46.37,-25.06 -85.47,-766.35 h -49.17"
         style="fill:#93a2b0;fill-opacity:1;fill-rule:nonzero;stroke:none"
         id="path382" />
      <path
         d="m 6915.83,2922.39 v 78.03 h -168 c -198.41,0 -369.09,-140.39 -407.38,-335.06 l -167.87,-853.33 c -14.76,-75.02 -80.54,-129.12 -156.99,-129.12 h -214.87 c -114.6,0 -207.5,-92.9 -207.5,-207.5 v 0 h 932.96 c 109.9,0 204.45,77.76 225.68,185.61 l 211.85,1076.93 c 13.58,69.03 -6.62,135.6 -47.88,184.44"
         style="fill:#73769e;fill-opacity:1;fill-rule:nonzero;stroke:none"
         id="path384" />
      <path
         d="m 6919.84,1661.02 211.86,1076.93 c 26.74,135.94 -77.32,262.47 -215.86,262.47 h -0.01 c -198.42,0 -369.1,-140.38 -407.39,-335.06 L 6310.86,1661.02 c -21.21,-107.85 -115.76,-185.61 -225.67,-185.61 h -8.1 617.08 c 109.91,0 204.46,77.76 225.67,185.61"
         style="fill:#3e4c78;fill-opacity:1;fill-rule:nonzero;stroke:none"
         id="path386" />
    </g>
  </g>
</svg>
